<svg id="Capa_1" data-name="Capa 1" xmlns="http://www.w3.org/2000/svg" viewBox="0 0 502 431.41"><defs><style>.cls-1{fill:#d3d3d3;}.cls-2{fill:#cecece;}</style></defs><title>photo</title><path class="cls-1" d="M502,122.72A34.35,34.35,0,0,0,480.63,107L213.43,41.3a34.6,34.6,0,0,0-41.9,25.35l-8.05,32.71L29.89,141.75A35.78,35.78,0,0,0,6,184.29L70.29,445.56a34.33,34.33,0,0,0,33.25,26.14,34.71,34.71,0,0,0,8.95-1.18l205.78-55,81.55,20.05a34.61,34.61,0,0,0,41.91-25.35L506,148.91A34.4,34.4,0,0,0,502,122.72ZM106.65,432.25,44,177.64l108.69-34.49L107.27,327.92a34.67,34.67,0,0,0,25.36,41.91L240.69,396.4ZM435.59,274l-36.54-56.28A23.6,23.6,0,0,0,364.14,212l-77.8,61.9a13.06,13.06,0,0,1-8.25,2.84,13.38,13.38,0,0,1-10.28-4.7L238.33,237c-5.65-6.72-14.7-10.74-24.21-10.74a29.57,29.57,0,0,0-13.15,3l-34,16.92L208,79.58,467.7,143.46Z" transform="translate(-5 -40.29)"/><path class="cls-2" d="M271.78,192.06a34.51,34.51,0,1,0,16.48-67,35,35,0,0,0-8.26-1,34.51,34.51,0,0,0-8.22,68Z" transform="translate(-5 -40.29)"/></svg>